HIERARCHY
ROOT hip
{
  OFFSET 0 0 0
  CHANNELS 6 Xposition Yposition Zposition Zrotation Yrotation Xrotation
  JOINT abdomen
  {
    OFFSET 0 20.6881 -0.73152
    CHANNELS 3 Zrotation Xrotation Yrotation
    JOINT chest
    {
      OFFSET 0 11.7043 -0.48768
      CHANNELS 3 Zrotation Xrotation Yrotation
      JOINT neck
      {
        OFFSET 0 22.1894 -2.19456
        CHANNELS 3 Zrotation Xrotation Yrotation
        JOINT head
        {
          OFFSET -0.24384 7.07133 1.2192
          CHANNELS 3 Zrotation Xrotation Yrotation
          JOINT leftEye
          {
            OFFSET 4.14528 8.04674 8.04672
            CHANNELS 3 Zrotation Xrotation Yrotation
            End Site
            {
              OFFSET 1 0 0
            }
          }
          JOINT rightEye
          {
            OFFSET -3.6576 8.04674 8.04672
            CHANNELS 3 Zrotation Xrotation Yrotation
            End Site
            {
              OFFSET 1 0 0
            }
          }
        }
      }
      JOINT rCollar
      {
        OFFSET -2.68224 19.2634 -4.8768
        CHANNELS 3 Zrotation Xrotation Yrotation
        JOINT rShldr
        {
          OFFSET -8.77824 -1.95073 1.46304
          CHANNELS 3 Zrotation Xrotation Yrotation
          JOINT rForeArm
          {
            OFFSET -28.1742 -1.7115 0.48768
            CHANNELS 3 Zrotation Xrotation Yrotation
            JOINT rHand
            {
              OFFSET -22.5879 0.773209 7.07136
              CHANNELS 3 Zrotation Xrotation Yrotation
              JOINT rThumb1
              {
                OFFSET -1.2192 -0.487915 3.41376
                CHANNELS 3 Zrotation Xrotation Yrotation
                JOINT rThumb2
                {
                  OFFSET -3.37035 -0.52449 3.41376
                  CHANNELS 3 Zrotation Xrotation Yrotation
                  End Site
                  {
                    OFFSET -1.78271 -1.18214 1.43049
                  }
                }
              }
              JOINT rIndex1
              {
                OFFSET -7.75947 0.938293 5.60832
                CHANNELS 3 Zrotation Xrotation Yrotation
                JOINT rIndex2
                {
                  OFFSET -2.54057 -0.884171 1.56538
                  CHANNELS 3 Zrotation Xrotation Yrotation
                  End Site
                  {
                    OFFSET -1.62519 -0.234802 1.16502
                  }
                }
              }
              JOINT rMid1
              {
                OFFSET -8.24714 1.18213 3.41376
                CHANNELS 3 Zrotation Xrotation Yrotation
                JOINT rMid2
                {
                  OFFSET -3.10165 -0.590103 1.0647
                  CHANNELS 3 Zrotation Xrotation Yrotation
                  End Site
                  {
                    OFFSET -2.48547 -0.328903 0.83742
                  }
                }
              }
              JOINT rRing1
              {
                OFFSET -8.82822 0.546677 1.51678
                CHANNELS 3 Zrotation Xrotation Yrotation
                JOINT rRing2
                {
                  OFFSET -2.60934 -0.819778 -0.0198488
                  CHANNELS 3 Zrotation Xrotation Yrotation
                  End Site
                  {
                    OFFSET -2.33842 -0.294052 0.168128
                  }
                }
              }
              JOINT rPinky1
              {
                OFFSET -8.27202 -0.0477905 -0.4584
                CHANNELS 3 Zrotation Xrotation Yrotation
                JOINT rPinky2
                {
                  OFFSET -1.82734 -0.647385 -0.700984
                  CHANNELS 3 Zrotation Xrotation Yrotation
                  End Site
                  {
                    OFFSET -1.69225 -0.51767 -0.607171
                  }
                }
              }
            }
          }
        }
      }
      JOINT lCollar
      {
        OFFSET 2.68224 19.2634 -4.8768
        CHANNELS 3 Zrotation Xrotation Yrotation
        JOINT lShldr
        {
          OFFSET 8.77824 -1.95073 1.46304
          CHANNELS 3 Zrotation Xrotation Yrotation
          JOINT lForeArm
          {
            OFFSET 28.1742 -1.7115 0.48768
            CHANNELS 3 Zrotation Xrotation Yrotation
            JOINT lHand
            {
              OFFSET 22.5879 0.773209 7.07136
              CHANNELS 3 Zrotation Xrotation Yrotation
              JOINT lThumb1
              {
                OFFSET 1.2192 -0.487915 3.41376
                CHANNELS 3 Zrotation Xrotation Yrotation
                JOINT lThumb2
                {
                  OFFSET 3.37035 -0.52449 3.41376
                  CHANNELS 3 Zrotation Xrotation Yrotation
                  End Site
                  {
                    OFFSET 1.78271 -1.18214 1.43049
                  }
                }
              }
              JOINT lIndex1
              {
                OFFSET 7.75947 0.938293 5.60832
                CHANNELS 3 Zrotation Xrotation Yrotation
                JOINT lIndex2
                {
                  OFFSET 2.54057 -0.884171 1.56538
                  CHANNELS 3 Zrotation Xrotation Yrotation
                  End Site
                  {
                    OFFSET 1.62519 -0.234802 1.16502
                  }
                }
              }
              JOINT lMid1
              {
                OFFSET 8.24714 1.18213 3.41376
                CHANNELS 3 Zrotation Xrotation Yrotation
                JOINT lMid2
                {
                  OFFSET 3.10165 -0.590103 1.0647
                  CHANNELS 3 Zrotation Xrotation Yrotation
                  End Site
                  {
                    OFFSET 2.48547 -0.328903 0.83742
                  }
                }
              }
              JOINT lRing1
              {
                OFFSET 8.82822 0.546677 1.51678
                CHANNELS 3 Zrotation Xrotation Yrotation
                JOINT lRing2
                {
                  OFFSET 2.60934 -0.819778 -0.0198488
                  CHANNELS 3 Zrotation Xrotation Yrotation
                  End Site
                  {
                    OFFSET 2.33842 -0.294052 0.168128
                  }
                }
              }
              JOINT lPinky1
              {
                OFFSET 8.27202 -0.0477905 -0.4584
                CHANNELS 3 Zrotation Xrotation Yrotation
                JOINT lPinky2
                {
                  OFFSET 1.82734 -0.647385 -0.700984
                  CHANNELS 3 Zrotation Xrotation Yrotation
                  End Site
                  {
                    OFFSET 1.69225 -0.51767 -0.607171
                  }
                }
              }
            }
          }
        }
      }
    }
  }
  JOINT rButtock
  {
    OFFSET -8.77824 4.35084 1.2192
    CHANNELS 3 Zrotation Xrotation Yrotation
    JOINT rThigh
    {
      OFFSET 0 -1.70687 -2.19456
      CHANNELS 3 Zrotation Xrotation Yrotation
      JOINT rShin
      {
        OFFSET 0 -36.8199 0.73152
        CHANNELS 3 Zrotation Xrotation Yrotation
        JOINT rFoot
        {
          OFFSET 0.73152 -45.1104 -5.12064
          CHANNELS 3 Zrotation Xrotation Yrotation
          End Site
          {
            OFFSET -1.1221 -3.69964 12.103
          }
        }
      }
    }
  }
  JOINT lButtock
  {
    OFFSET 8.77824 4.35084 1.2192
    CHANNELS 3 Zrotation Xrotation Yrotation
    JOINT lThigh
    {
      OFFSET 0 -1.70687 -2.19456
      CHANNELS 3 Zrotation Xrotation Yrotation
      JOINT lShin
      {
        OFFSET 0 -36.8199 0.73152
        CHANNELS 3 Zrotation Xrotation Yrotation
        JOINT lFoot
        {
          OFFSET -0.73152 -45.1104 -5.12064
          CHANNELS 3 Zrotation Xrotation Yrotation
          End Site
          {
            OFFSET 1.1221 -3.69964 12.103
          }
        }
      }
    }
  }
}
MOTION
Frames:	4
Frame Time:	0.00833333
1.82625 85.2343 -201.307 0.0 0.0 0.0 0.705189 -0.00371385 0.0199543 0.194579 -0.00526912 0.0337141 9.17899e-15 7.95139e-16 6.21202e-17 2.72552e-14 9.54166e-15 1.56854e-16 -0.0 0.0 0.0 -0.0 0.0 0.0 4.6206e-15 6.0179e-18 1.98785e-16 9.62129e-14 -6.83322e-17 1.59028e-15 1.64365e-12 -4.86426e-13 1.90833e-14 1.87946e-11 5.17163e-13 9.54166e-14 4.43325e-11 7.01516e-14 2.67167e-13 7.65488e-11 1.24042e-13 4.57205e-13 4.43365e-11 6.87795e-14 2.57625e-13 7.73091 5.47488 0.417314 4.43332e-11 6.94752e-14 2.73528e-13 2.90554 0.965183 0.102902 4.43317e-11 6.95746e-14 2.68757e-13 10.2786 0.731801 0.0259123 4.43262e-11 7.39479e-14 2.76708e-13 2.22167 -0.733487 -0.20892 4.32501e-15 5.04727e-18 -1.98785e-16 9.46757e-14 -1.61513e-16 1.98785e-16 1.64127e-12 4.95173e-13 -3.81667e-14 1.87945e-11 -4.75741e-13 1.78111e-13 4.43346e-11 4.72921e-14 2.73528e-13 7.6577e-11 8.90555e-14 4.73108e-13 4.43314e-11 4.57205e-14 2.83069e-13 -7.73091 5.47488 -0.417314 4.43357e-11 4.67144e-14 2.73528e-13 -2.90554 0.965183 -0.102902 4.43314e-11 4.7112e-14 2.73528e-13 -10.2786 0.731801 -0.0259123 4.43405e-11 5.00937e-14 2.63986e-13 -2.22167 -0.733487 0.20892 -2.03217e-16 0.0 -3.88251e-19 1.03767 -4.8484 -0.0878813 -0.00129058 3.22991 0.00172039 -0.507984 1.61857 0.0909485 2.03217e-16 0.0 3.88251e-19 0.0358152 -2.16336 0.0186165 0.0086454 -1.63356 0.0730536 0.498165 3.79688 -0.134159
1.3504 83.7257 -202.57 -3.2606 1.3655 3.7745 2.15268 -0.57526 -1.45447 0.47024 -1.07728 -0.377905 -1.68315 1.45287 -2.51562 2.0414 -3.31966 -4.47887 -0.0 0.0 0.0 -0.0 0.0 0.0 -1.92714e-14 -1.85731e-14 1.13707e-14 20.2783 2.88673 0.630632 -3.95281 -1.74601 6.2271 0.0361057 -4.21718 -0.586901 2.13721e-10 8.60425e-11 1.08633e-10 3.67431e-10 1.52628e-10 1.89944e-10 2.13724e-10 8.60413e-11 1.08625e-10 7.73091 5.47488 0.417314 2.13722e-10 8.60422e-11 1.08637e-10 2.90554 0.965183 0.102902 2.13721e-10 8.6042e-11 1.08634e-10 10.2786 0.731801 0.0259123 2.13715e-10 8.60458e-11 1.08641e-10 2.22167 -0.733487 -0.20892 -1.95084e-14 -1.85761e-14 1.10287e-14 -22.2843 3.38396 1.97232 3.88681 -1.70466 -6.13584 -0.0162828 2.83136 -0.396169 4.16964e-11 -1.12168e-10 1.12403e-10 7.24183e-11 -1.93793e-10 1.94482e-10 4.16931e-11 -1.12171e-10 1.12413e-10 -7.73091 5.47488 -0.417314 4.16979e-11 -1.12169e-10 1.12402e-10 -2.90554 0.965183 -0.102902 4.16956e-11 -1.12167e-10 1.12404e-10 -10.2786 0.731801 -0.0259123 4.17022e-11 -1.12166e-10 1.12394e-10 -2.22167 -0.733487 0.20892 -2.03217e-16 0.0 -3.88251e-19 2.36109 -7.63042 -0.351464 0.0131746 9.77071 0.119234 -0.671103 -3.2236 -1.55387 2.03217e-16 0.0 3.88251e-19 1.67766 -6.23971 -1.6897 -0.0132987 6.94614 -0.0800408 0.640756 -1.57359 1.54847
1.40162 83.7248 -202.552 -3.2689 1.5155 3.8121 3.65669 -1.16309 -3.01294 0.731511 -2.22287 -0.81332 -3.31565 2.9909 -5.17742 3.64099 -6.77856 -9.25872 -0.0 0.0 0.0 -0.0 0.0 0.0 -4.56224e-14 -3.92674e-14 2.44412e-14 41.6517 5.9375 1.30273 -7.72465 -3.52521 12.8335 -0.0206329 -8.66948 -1.21739 4.04309e-10 1.7678e-10 2.36454e-10 6.94674e-10 3.1384e-10 4.13321e-10 4.04311e-10 1.76779e-10 2.36446e-10 7.73091 5.47488 0.417314 4.04309e-10 1.76781e-10 2.36454e-10 2.90554 0.965183 0.102902 4.04309e-10 1.7678e-10 2.36452e-10 10.2786 0.731801 0.0259123 4.04302e-10 1.76783e-10 2.36459e-10 2.22167 -0.733487 -0.20892 -4.57967e-14 -3.92728e-14 2.41585e-14 -46.0929 6.94669 4.10558 7.60433 -3.44365 -12.6446 0.00926698 5.81982 -0.817609 4.39726e-11 -2.4209e-10 2.32713e-10 7.67849e-11 -4.18321e-10 4.02615e-10 4.39694e-11 -2.42093e-10 2.32724e-10 -7.73091 5.47488 -0.417314 4.39745e-11 -2.42092e-10 2.32712e-10 -2.90554 0.965183 -0.102902 4.39746e-11 -2.42087e-10 2.32716e-10 -10.2786 0.731801 -0.0259123 4.39782e-11 -2.42088e-10 2.32704e-10 -2.22167 -0.733487 0.20892 -2.03217e-16 0.0 -3.88251e-19 3.73677 -10.5686 -0.634936 -0.00192403 16.6862 0.250402 -1.14701 -8.32893 -3.31677 2.03217e-16 0.0 3.88251e-19 3.15042 -10.5363 -3.536 0.0148729 16.0269 -0.250546 1.13665 -7.24379 3.35282
1.51714 83.7081 -202.519 -3.1278 1.8887 4.013 4.95948 -1.71383 -4.40507 0.975294 -3.22068 -1.20284 -4.66702 4.32496 -7.5661 4.56399 -9.71422 -13.6129 -0.0 0.0 0.0 -0.0 0.0 0.0 -6.70554e-14 -5.57314e-14 3.37146e-14 60.6425 8.65595 1.91127 -10.7386 -4.99104 18.7463 -0.156311 -12.6461 -1.79961 5.52499e-10 2.57987e-10 3.25366e-10 9.49195e-10 4.57637e-10 5.68917e-10 5.52499e-10 2.57986e-10 3.25359e-10 7.73091 5.47488 0.417314 5.52499e-10 2.57988e-10 3.25364e-10 2.90554 0.965183 0.102902 5.525e-10 2.57987e-10 3.25364e-10 10.2786 0.731801 0.0259123 5.52492e-10 2.57989e-10 3.2537e-10 2.22167 -0.733487 -0.20892 -6.71752e-14 -5.57385e-14 3.34836e-14 -67.5597 10.1034 6.00002 10.5827 -4.87983 -18.4687 0.0697152 8.49245 -1.20022 3.64199e-11 -3.36599e-10 3.36661e-10 6.41009e-11 -5.81558e-10 5.82501e-10 3.64167e-11 -3.36603e-10 3.36673e-10 -7.73091 5.47488 -0.417314 3.64222e-11 -3.36601e-10 3.3666e-10 -2.90554 0.965183 -0.102902 3.64241e-11 -3.36596e-10 3.36666e-10 -10.2786 0.731801 -0.0259123 3.64255e-11 -3.36599e-10 3.36653e-10 -2.22167 -0.733487 0.20892 -2.03217e-16 0.0 -3.88251e-19 4.92913 -13.1933 -0.893508 -0.044498 22.8519 0.37881 -1.84745 -12.8647 -4.96088 2.03217e-16 0.0 3.88251e-19 4.21239 -14.3428 -5.24003 0.0899357 24.105 -0.421132 1.88699 -12.2703 5.0265
